<?xml version="1.0" encoding="UTF-8" standalone="yes"?><svg xmlns="http://www.w3.org/2000/svg" xmlns:xlink="http://www.w3.org/1999/xlink" width="190px" height="190px" viewBox="0 0 190 190" version="1.1" style="zoom: 1;"><!-- Generator: Sketch 48.2 (47327) - http://www.bohemiancoding.com/sketch --><title>icon_transactions</title><desc>Created with Sketch.</desc><defs></defs><g id="Landing-page" stroke="none" stroke-width="1" fill="none" fill-rule="evenodd" transform="translate(-886.000000, -2102.000000)"><g id="How-it-works-Copy" transform="translate(250.000000, 1909.000000)"><g id="1" transform="translate(1.000000, 193.000000)"><g id="icon_transactions" transform="translate(635.000000, 0.000000)"><path d="M169.272727,0 C157.841636,0 148.545455,9.29618182 148.545455,20.7272727 C148.545455,24.3027273 149.454,27.6674545 151.053455,30.6072727 L117.098727,64.562 C112.417818,60.9174545 106.558909,58.7272727 100.181818,58.7272727 C93.8047273,58.7272727 87.9458182,60.9174545 83.2614545,64.5585455 L56.7685455,38.0656364 C57.9845455,36.0101818 58.7272727,33.6472727 58.7272727,31.0909091 C58.7272727,23.4701818 52.5298182,17.2727273 44.9090909,17.2727273 C37.2883636,17.2727273 31.0909091,23.4701818 31.0909091,31.0909091 C31.0909091,38.7116364 37.2883636,44.9090909 44.9090909,44.9090909 C47.4654545,44.9090909 49.8283636,44.1663636 51.8838182,42.9503636 L78.3767273,69.4432727 C74.7356364,74.1276364 72.5454545,79.9865455 72.5454545,86.3636364 C72.5454545,92.7407273 74.7356364,98.5996364 78.3767273,103.280545 L34.6283636,147.032364 C30.9458182,143.691818 26.0783636,141.636364 20.7272727,141.636364 C9.29618182,141.636364 0,150.932545 0,162.363636 C0,173.794727 9.29618182,183.090909 20.7272727,183.090909 C32.1583636,183.090909 41.4545455,173.794727 41.4545455,162.363636 C41.4545455,158.788182 40.546,155.423455 38.9465455,152.483636 L83.2649091,108.165273 C87.0856364,111.136182 91.694,113.126 96.7307273,113.758182 L96.7307273,148.856364 C86.944,150.507636 79.458,159.019636 79.458,169.272727 C79.458,180.703818 88.7541818,190 100.185273,190 C111.616364,190 120.912545,180.703818 120.912545,169.272727 C120.912545,159.023091 113.426545,150.511091 103.639818,148.856364 L103.639818,113.758182 C108.676545,113.126 113.284909,111.136182 117.105636,108.165273 L143.598545,134.658182 C142.379091,136.717091 141.636364,139.08 141.636364,141.636364 C141.636364,149.257091 147.833818,155.454545 155.454545,155.454545 C163.075273,155.454545 169.272727,149.257091 169.272727,141.636364 C169.272727,134.015636 163.075273,127.818182 155.454545,127.818182 C152.898182,127.818182 150.535273,128.560909 148.479818,129.776909 L121.986909,103.284 C125.628,98.5996364 127.818182,92.7407273 127.818182,86.3636364 C127.818182,79.9865455 125.628,74.1276364 121.986909,69.4467273 L155.375091,36.0585455 C159.054182,39.3990909 163.921636,41.4545455 169.272727,41.4545455 C180.703818,41.4545455 190,32.1583636 190,20.7272727 C190,9.29618182 180.703818,0 169.272727,0 Z M38,31.0909091 C38,27.2805455 41.0987273,24.1818182 44.9090909,24.1818182 C48.7194545,24.1818182 51.8181818,27.2805455 51.8181818,31.0909091 C51.8181818,34.9012727 48.7194545,38 44.9090909,38 C41.0987273,38 38,34.9012727 38,31.0909091 Z M20.7272727,176.181818 C13.1065455,176.181818 6.90909091,169.984364 6.90909091,162.363636 C6.90909091,154.742909 13.1065455,148.545455 20.7272727,148.545455 C28.348,148.545455 34.5454545,154.742909 34.5454545,162.363636 C34.5454545,169.984364 28.348,176.181818 20.7272727,176.181818 Z M114,169.272727 C114,176.893455 107.802545,183.090909 100.181818,183.090909 C92.5610909,183.090909 86.3636364,176.893455 86.3636364,169.272727 C86.3636364,161.652 92.5610909,155.454545 100.181818,155.454545 C107.802545,155.454545 114,161.652 114,169.272727 Z M100.181818,107.090909 C88.7507273,107.090909 79.4545455,97.7947273 79.4545455,86.3636364 C79.4545455,74.9325455 88.7507273,65.6363636 100.181818,65.6363636 C111.612909,65.6363636 120.909091,74.9325455 120.909091,86.3636364 C120.909091,97.7947273 111.612909,107.090909 100.181818,107.090909 Z M162.363636,141.636364 C162.363636,145.446727 159.264909,148.545455 155.454545,148.545455 C151.644182,148.545455 148.545455,145.446727 148.545455,141.636364 C148.545455,137.826 151.644182,134.727273 155.454545,134.727273 C159.264909,134.727273 162.363636,137.826 162.363636,141.636364 Z M169.272727,34.5454545 C161.652,34.5454545 155.454545,28.348 155.454545,20.7272727 C155.454545,13.1065455 161.652,6.90909091 169.272727,6.90909091 C176.893455,6.90909091 183.090909,13.1065455 183.090909,20.7272727 C183.090909,28.348 176.893455,34.5454545 169.272727,34.5454545 Z" id="Shape" fill="#CCCCCC" fill-rule="nonzero"></path><circle id="Oval-4" fill="#1262af" cx="100" cy="87" r="13"></circle></g></g></g></g></svg>