<?xml version="1.0" encoding="UTF-8" standalone="yes"?><svg xmlns="http://www.w3.org/2000/svg" xmlns:xlink="http://www.w3.org/1999/xlink" width="230px" height="211px" viewBox="0 0 230 211" version="1.1" style="zoom: 1;"><!-- Generator: Sketch 48.2 (47327) - http://www.bohemiancoding.com/sketch --><title>icon_blocks</title><desc>Created with Sketch.</desc><defs></defs><g id="Landing-page" stroke="none" stroke-width="1" fill="none" fill-rule="evenodd" transform="translate(-326.000000, -2432.000000)"><g id="How-it-works-Copy" transform="translate(250.000000, 1909.000000)" fill-rule="nonzero"><g id="2" transform="translate(76.000000, 523.000000)"><g id="icon_blocks"><g id="four-blocks-cube" transform="translate(62.000000, 0.000000)" fill="#1262af"><path d="M106.876602,21.155905 L106.956146,20.959314 L54.757439,0 L30.197628,9.528311 L30.040066,9.46022 L29.970718,9.618415 L0.182548,21.176384 L0.007649,21.107014 L0.007649,21.241402 L0,21.244474 L0.007649,21.267 L0.007649,88.488136 L51.5937,108.918602 L51.5937,109 L55.416241,109 L55.416241,108.918602 L107,88.488136 L107,21.108294 L106.876602,21.155905 M103.179756,56.097054 L81.482323,64.082832 L81.482323,35.338428 L103.179756,26.744442 L103.179756,56.097054 M51.59523,45.661808 L51.59523,73.699715 L29.498541,65.674515 L29.498541,36.908092 L51.59523,45.661808 M32.060329,33.801785 L54.266396,24.53227 L74.939163,33.806137 L53.504078,42.295174 L32.060329,33.801785 M55.416241,45.661808 L77.662079,36.850498 L77.662079,65.489952 L55.416241,73.681541 L55.416241,45.661808 M79.913589,31.83433 L59.118954,22.505684 L79.425346,14.025864 L102.016396,23.080612 L79.913589,31.83433 M54.711037,4.120752 L74.347153,11.990062 L54.320702,20.351875 L35.119022,11.737666 L54.711037,4.120752 M30.100491,13.688483 L49.468906,22.377182 L26.955366,31.776991 L5.46139,23.264406 L30.100491,13.688483 M25.678297,35.39756 L25.678297,64.285828 L3.831718,56.354313 L3.831718,26.744442 L25.678297,35.39756 M3.831463,60.433598 L25.678041,68.369461 L25.678041,94.526688 L3.831463,85.87664 L3.831463,60.433598 M29.497011,96.041313 L29.497011,69.756866 L51.5937,77.782066 L51.5937,104.791191 L29.497011,96.041313 M55.416241,77.769783 L77.662079,69.578453 L77.662079,95.980904 L55.416241,104.791191 L55.416241,77.769783 M81.483856,94.467552 L81.483856,68.171074 L103.179756,60.18248 L103.179756,85.87664 L81.483856,94.467552 " id="Shape"></path></g><g id="four-blocks-cube-copy" transform="translate(0.000000, 102.000000)" fill="#CCCCCC"><path d="M106.876602,21.1559054 L106.956148,20.9593134 L54.7574378,0 L30.1976282,9.52831035 L30.0400661,9.46021991 L29.9707183,9.618415 L0.182547739,21.1763837 L0.00764864826,21.1070134 L0.00764864826,21.2414024 L0,21.2444741 L0.00764864826,21.2670003 L0.00764864826,88.4881381 L51.5937019,108.918599 L51.5937019,109 L55.4162413,109 L55.4162413,108.918599 L107,88.4881381 L107,21.1082933 L106.876602,21.1559054 M103.179755,56.0970537 L81.4823247,64.0828339 L81.4823247,35.3384279 L103.179755,26.7444413 L103.179755,56.0970537 M51.5952316,45.6618093 L51.5952316,73.699713 L29.4985418,65.674512 L29.4985418,36.9080918 L51.5952316,45.6618093 M32.060329,33.8017853 L54.2663946,24.5322698 L74.9391611,33.8061369 L53.5040793,42.2951721 L32.060329,33.8017853 M55.4162413,45.6618093 L77.6620799,36.8504965 L77.6620799,65.4899511 L55.4162413,73.6815385 L55.4162413,45.6618093 M79.913587,31.8343299 L59.118952,22.5056832 L79.4253482,14.0258633 L102.016396,23.0806123 L79.913587,31.8343299 M54.711036,4.12075169 L74.3471557,11.9900614 L54.3207,20.351875 L35.1190235,11.737666 L54.711036,4.12075169 M30.1004904,13.6884828 L49.4689074,22.3771817 L26.9553662,31.7769905 L5.46138981,23.2644053 L30.1004904,13.6884828 M25.6782969,35.397559 L25.6782969,64.2858253 L3.83171782,56.3543127 L3.83171782,26.7444413 L25.6782969,35.397559 M3.83146287,60.4335957 L25.6780419,68.36946 L25.6780419,94.5266852 L3.83146287,85.8766392 L3.83146287,60.4335957 M29.497012,96.0413136 L29.497012,69.7568668 L51.5937019,77.7820678 L51.5937019,104.791192 L29.497012,96.0413136 M55.4162413,77.7697808 L77.6620799,69.5784494 L77.6620799,95.9809025 L55.4162413,104.791192 L55.4162413,77.7697808 M81.4838544,94.4675541 L81.4838544,68.1710762 L103.179755,60.1824802 L103.179755,85.8766392 L81.4838544,94.4675541 " id="Shape"></path></g><g id="four-blocks-cube-copy-2" transform="translate(123.000000, 102.000000)" fill="#CCCCCC"><path d="M106.876602,21.1559054 L106.956148,20.9593134 L54.7574378,0 L30.1976282,9.52831035 L30.0400661,9.46021991 L29.9707183,9.618415 L0.182547739,21.1763837 L0.00764864826,21.1070134 L0.00764864826,21.2414024 L0,21.2444741 L0.00764864826,21.2670003 L0.00764864826,88.4881381 L51.5937019,108.918599 L51.5937019,109 L55.4162413,109 L55.4162413,108.918599 L107,88.4881381 L107,21.1082933 L106.876602,21.1559054 Z M103.179755,56.0970537 L81.4823247,64.0828339 L81.4823247,35.3384279 L103.179755,26.7444413 L103.179755,56.0970537 Z M51.5952316,45.6618093 L51.5952316,73.699713 L29.4985418,65.674512 L29.4985418,36.9080918 L51.5952316,45.6618093 Z M32.060329,33.8017853 L54.2663946,24.5322698 L74.9391611,33.8061369 L53.5040793,42.2951721 L32.060329,33.8017853 Z M55.4162413,45.6618093 L77.6620799,36.8504965 L77.6620799,65.4899511 L55.4162413,73.6815385 L55.4162413,45.6618093 Z M79.913587,31.8343299 L59.118952,22.5056832 L79.4253482,14.0258633 L102.016396,23.0806123 L79.913587,31.8343299 Z M54.711036,4.12075169 L74.3471557,11.9900614 L54.3207,20.351875 L35.1190235,11.737666 L54.711036,4.12075169 Z M30.1004904,13.6884828 L49.4689074,22.3771817 L26.9553662,31.7769905 L5.46138981,23.2644053 L30.1004904,13.6884828 Z M25.6782969,35.397559 L25.6782969,64.2858253 L3.83171782,56.3543127 L3.83171782,26.7444413 L25.6782969,35.397559 Z M3.83146287,60.4335957 L25.6780419,68.36946 L25.6780419,94.5266852 L3.83146287,85.8766392 L3.83146287,60.4335957 Z M29.497012,96.0413136 L29.497012,69.7568668 L51.5937019,77.7820678 L51.5937019,104.791192 L29.497012,96.0413136 Z M55.4162413,77.7697808 L77.6620799,69.5784494 L77.6620799,95.9809025 L55.4162413,104.791192 L55.4162413,77.7697808 Z M81.4838544,94.4675541 L81.4838544,68.1710762 L103.179755,60.1824802 L103.179755,85.8766392 L81.4838544,94.4675541 Z" id="Shape"></path></g></g></g></g></g></svg>