<?xml version="1.0" encoding="UTF-8" standalone="yes"?><svg xmlns="http://www.w3.org/2000/svg" xmlns:xlink="http://www.w3.org/1999/xlink" width="256px" height="199px" viewBox="0 0 256 199" version="1.1" style="zoom: 1;"><!-- Generator: Sketch 48.2 (47327) - http://www.bohemiancoding.com/sketch --><title>icon_moning</title><desc>Created with Sketch.</desc><defs></defs><g id="Landing-page" stroke="none" stroke-width="1" fill="none" fill-rule="evenodd" transform="translate(-836.000000, -2828.000000)"><g id="How-it-works-Copy" transform="translate(250.000000, 1909.000000)" fill-rule="nonzero"><g id="3" transform="translate(0.000000, 874.000000)"><g id="icon_moning" transform="translate(586.000000, 45.000000)"><path d="M255.818939,70.05454 L255.935656,69.7659646 L179.345026,39 L143.308669,52.9865106 L143.07748,52.8865613 L142.975727,53.1187743 L99.2678504,70.0845999 L99.0112228,69.9827719 L99.0112228,70.1800402 L99,70.1845492 L99.0112228,70.2176151 L99.0112228,168.890845 L174.702908,198.880512 L174.702908,199 L180.311681,199 L180.311681,198.880512 L256,168.890845 L256,69.9846506 L255.818939,70.05454 Z M250.394594,121.344299 L218.558177,133.066545 L218.558177,90.8729216 L250.394594,78.2578954 L250.394594,121.344299 Z M174.705153,106.026509 L174.705153,147.183065 L142.282907,135.402953 L142.282907,93.1770154 L174.705153,106.026509 Z M146.041791,88.6172995 L178.624523,75.0106713 L208.957461,88.6236872 L177.505985,101.084656 L146.041791,88.6172995 Z M180.311681,106.026509 L212.952771,93.0924719 L212.952771,135.132038 L180.311681,147.156387 L180.311681,106.026509 Z M216.256385,85.7292915 L185.74463,72.0358653 L215.539997,59.5884232 L248.687609,72.8797978 L216.256385,85.7292915 Z M179.276941,45.0488098 L208.088817,56.6000902 L178.704205,68.8743119 L150.529782,56.2296015 L179.276941,45.0488098 Z M143.16614,59.0931858 L171.585219,71.8472392 L138.551332,85.6451237 L107.013441,73.1495857 L143.16614,59.0931858 Z M136.677501,90.9597197 L136.677501,133.364514 L104.62224,121.721927 L104.62224,78.2578954 L136.677501,90.9597197 Z M104.621866,127.709865 L136.677127,139.35884 L136.677127,177.754767 L104.621866,165.057452 L104.621866,127.709865 Z M142.280663,179.978075 L142.280663,141.395401 L174.702908,153.175512 L174.702908,192.821932 L142.280663,179.978075 Z M180.311681,153.157476 L212.952771,141.133504 L212.952771,179.889398 L180.311681,192.821932 L180.311681,153.157476 Z M218.560422,177.667969 L218.560422,139.067635 L250.394594,127.341255 L250.394594,165.057452 L218.560422,177.667969 Z" id="Shape" fill="#CCCCCC"></path><g id="bitcoin" fill="#1262af"><path d="M72.7239645,44.9037297 L67.7085187,44.9037297 L67.7085187,39.9144264 L62.6930729,39.9144264 L62.6930729,154.668402 L77.7394103,154.668402 L77.7394103,39.9144264 L72.7239645,39.9144264 L72.7239645,44.9037297 M72.7239645,149.679099 L67.7085187,149.679099 L67.7085187,49.893033 L72.7239645,49.893033 L72.7239645,149.679099 " id="Shape"></path><path d="M139.589888,25.5776634 C138.662031,24.756923 116.940135,5.97718536 82.7548562,5.07412146 L82.7548562,0 L57.677627,0 L57.677627,5.07412146 C23.4923483,5.97718536 1.77045238,24.756923 0.842594899,25.5776634 L0,26.3210696 L0,32.4304715 L5.01544583,32.4304715 L5.57968348,32.3681052 C5.89064113,32.2932656 35.8002523,25.4878559 57.677627,24.978947 L57.677627,34.9251231 L82.7548562,34.9251231 L82.7548562,24.978947 C104.632231,25.4878559 134.541842,32.2932656 134.8528,32.3656105 L140.432483,32.4304715 L140.432483,26.3210696 L139.589888,25.5776634 M57.677627,19.9971276 C39.0602921,20.4037559 15.4676349,25.1236368 7.32505863,26.8698929 C14.326621,21.8456645 32.5803361,10.7569379 57.677627,10.0459622 L57.677627,19.9971276 M77.7394103,29.9358198 L62.6930729,29.9358198 L62.6930729,4.9893033 L77.7394103,4.9893033 L77.7394103,29.9358198 M82.7548562,19.9971276 L82.7548562,10.0459622 C107.779423,10.7594326 126.065739,21.8356859 133.092378,26.8673983 C124.932248,25.1186475 101.359652,20.4037559 82.7548562,19.9971276 " id="Shape"></path></g></g></g></g></g></svg>