<?xml version="1.0" encoding="UTF-8" standalone="yes"?><svg xmlns="http://www.w3.org/2000/svg" xmlns:xlink="http://www.w3.org/1999/xlink" width="199px" height="220px" viewBox="0 0 199 220" version="1.1" style="zoom: 1;"><!-- Generator: Sketch 48.2 (47327) - http://www.bohemiancoding.com/sketch --><title>icon_award</title><desc>Created with Sketch.</desc><defs></defs><g id="Landing-page" stroke="none" stroke-width="1" fill="none" fill-rule="evenodd" transform="translate(-341.000000, -3186.000000)"><g id="How-it-works-Copy" transform="translate(250.000000, 1909.000000)" fill-rule="nonzero"><g id="4" transform="translate(91.000000, 1277.000000)"><g id="icon_award"><g id="bitcoin"><path d="M167.017857,139.04 L167.017857,131.290323 L159.910714,131.290323 L159.910714,138.387097 L152.803571,138.387097 L152.803571,131.290323 L145.696429,131.290323 L145.696429,138.387097 L138.589286,138.387097 L138.589286,173.870968 L145.696429,173.870968 L145.696429,180.967742 L152.803571,180.967742 L152.803571,173.870968 L159.910714,173.870968 L159.910714,180.967742 L167.017857,180.967742 L167.017857,173.218065 C171.143554,171.749032 174.125,167.845806 174.125,163.225806 C174.125,160.500645 173.094464,158.013226 171.402964,156.129032 C173.094464,154.244839 174.125,151.757419 174.125,149.032258 C174.125,144.412258 171.143554,140.509032 167.017857,139.04 M163.464286,166.774194 L145.696429,166.774194 L145.696429,159.677419 L163.464286,159.677419 C165.425857,159.677419 167.017857,161.267097 167.017857,163.225806 C167.017857,165.184516 165.425857,166.774194 163.464286,166.774194 M163.464286,152.580645 L145.696429,152.580645 L145.696429,145.483871 L163.464286,145.483871 C165.425857,145.483871 167.017857,147.073548 167.017857,149.032258 C167.017857,150.990968 165.425857,152.580645 163.464286,152.580645 " id="Shape" fill="#1262af"></path><path d="M156.357143,124.193548 C163.713036,124.193548 170.901911,126.755484 176.587625,131.403871 L181.093554,125.914516 C174.135661,120.23 165.351232,117.096774 156.357143,117.096774 C134.804732,117.096774 117.267857,134.608065 117.267857,156.129032 C117.267857,165.11 120.405661,173.881613 126.098482,180.829355 L131.595857,176.33 C126.940679,170.652581 124.375,163.474194 124.375,156.129032 C124.375,138.518387 138.720768,124.193548 156.357143,124.193548 " id="Shape" fill="#1262af"></path><path d="M181.118429,135.928065 C185.773607,141.605484 188.339286,148.783871 188.339286,156.129032 C188.339286,173.739677 173.993518,188.064516 156.357143,188.064516 C149.00125,188.064516 141.812375,185.502581 136.126661,180.854194 L131.620732,186.343548 C138.578625,192.028065 147.363054,195.16129 156.357143,195.16129 C177.909554,195.16129 195.446429,177.65 195.446429,156.129032 C195.446429,147.148065 192.308625,138.376452 186.615804,131.42871 L181.118429,135.928065 " id="Shape" fill="#1262af"></path><path d="M53.3035714,78.7174194 L53.3035714,70.9677419 L46.1964286,70.9677419 L46.1964286,78.0645161 L39.0892857,78.0645161 L39.0892857,70.9677419 L31.9821429,70.9677419 L31.9821429,78.0645161 L24.875,78.0645161 L24.875,113.548387 L31.9821429,113.548387 L31.9821429,120.645161 L39.0892857,120.645161 L39.0892857,113.548387 L46.1964286,113.548387 L46.1964286,120.645161 L53.3035714,120.645161 L53.3035714,112.895484 C57.4292679,111.426452 60.4107143,107.523226 60.4107143,102.903226 C60.4107143,100.178065 59.3801786,97.6906452 57.6886786,95.8064516 C59.3801786,93.9222581 60.4107143,91.4348387 60.4107143,88.7096774 C60.4107143,84.0896774 57.4292679,80.1864516 53.3035714,78.7174194 M49.75,106.451613 L31.9821429,106.451613 L31.9821429,99.3548387 L49.75,99.3548387 C51.7115714,99.3548387 53.3035714,100.944516 53.3035714,102.903226 C53.3035714,104.861935 51.7115714,106.451613 49.75,106.451613 M49.75,92.2580645 L31.9821429,92.2580645 L31.9821429,85.1612903 L49.75,85.1612903 C51.7115714,85.1612903 53.3035714,86.7509677 53.3035714,88.7096774 C53.3035714,90.6683871 51.7115714,92.2580645 49.75,92.2580645 " id="Shape" fill="#1262af"></path><path d="M67.3792679,65.5919355 C60.421375,59.9074194 51.6369464,56.7741935 42.6428571,56.7741935 C21.0904464,56.7741935 3.55357143,74.2854839 3.55357143,95.8064516 C3.55357143,104.787419 6.691375,113.559032 12.3841964,120.506774 L17.8815714,116.007419 C13.2263929,110.33 10.6607143,103.151613 10.6607143,95.8064516 C10.6607143,78.1958065 25.0064821,63.8709677 42.6428571,63.8709677 C49.99875,63.8709677 57.187625,66.4329032 62.8733393,71.0812903 L67.3792679,65.5919355 " id="Shape" fill="#1262af"></path><path d="M67.4041429,75.6054839 C72.0593214,81.2829032 74.625,88.4612903 74.625,95.8064516 C74.625,113.417097 60.2792321,127.741935 42.6428571,127.741935 C35.2869643,127.741935 28.0980893,125.18 22.412375,120.531613 L17.9064464,126.020968 C24.8643393,131.705484 33.6487679,134.83871 42.6428571,134.83871 C64.1952679,134.83871 81.7321429,117.327419 81.7321429,95.8064516 C81.7321429,86.8254839 78.5943393,78.053871 72.9015179,71.106129 L67.4041429,75.6054839 " id="Shape" fill="#1262af"></path><rect id="Rectangle-path" fill="#1262af" x="131.482143" y="78.0645161" width="7.10714286" height="7.09677419"></rect><rect id="Rectangle-path" fill="#1262af" x="131.482143" y="92.2580645" width="7.10714286" height="7.09677419"></rect><rect id="Rectangle-path" fill="#1262af" x="138.589286" y="85.1612903" width="7.10714286" height="7.09677419"></rect><rect id="Rectangle-path" fill="#1262af" x="124.375" y="85.1612903" width="7.10714286" height="7.09677419"></rect><rect id="Rectangle-path" fill="#1262af" x="60.4107143" y="149.032258" width="7.10714286" height="7.09677419"></rect><rect id="Rectangle-path" fill="#1262af" x="60.4107143" y="163.225806" width="7.10714286" height="7.09677419"></rect><rect height="7.09677419" x="66.51786px" y="156.129028px" id="Rectangle-path" width="7.10714286" fill="#1262af"></rect><rect id="Rectangle-path" fill="#1262af" x="53.3035714" y="156.129032" width="7.10714286" height="7.09677419"></rect><rect id="Rectangle-path" fill="#1262af" x="7.10714286" y="134.83871" width="7.10714286" height="7.09677419"></rect><rect height="7.09677419" x="7.107143px" y="148.032257px" id="Rectangle-path" width="7.10714286" fill="#1262af"></rect><rect id="Rectangle-path" fill="#1262af" x="14.2142857" y="141.935484" width="7.10714286" height="7.09677419"></rect><rect id="Rectangle-path" fill="#1262af" x="0" y="141.935484" width="7.10714286" height="7.09677419"></rect><rect height="7.09677419" x="181.232147px" y="197.709671px" id="Rectangle-path" width="7.10714286" fill="#1262af"></rect><rect id="Rectangle-path" fill="#1262af" x="181.232143" y="212.903226" width="7.10714286" height="7.09677419"></rect><rect id="Rectangle-path" fill="#1262af" x="188.339286" y="205.806452" width="7.10714286" height="7.09677419"></rect><rect id="Rectangle-path" fill="#1262af" x="174.125" y="205.806452" width="7.10714286" height="7.09677419"></rect><rect id="Rectangle-path" fill="#1262af" x="152.803571" y="49.6774194" width="7.10714286" height="7.09677419"></rect><rect id="Rectangle-path" fill="#1262af" x="152.803571" y="63.8709677" width="7.10714286" height="7.09677419"></rect><rect height="7.09677419" x="158.910721px" y="56.774193px" id="Rectangle-path" width="7.10714286" fill="#1262af"></rect><rect id="Rectangle-path" fill="#1262af" x="145.696429" y="56.7741935" width="7.10714286" height="7.09677419"></rect><rect id="Rectangle-path" fill="#1262af" x="184.785714" y="92.2580645" width="7.10714286" height="7.09677419"></rect><rect id="Rectangle-path" fill="#1262af" x="184.785714" y="106.451613" width="7.10714286" height="7.09677419"></rect><rect id="Rectangle-path" fill="#1262af" x="191.892857" y="99.3548387" width="7.10714286" height="7.09677419"></rect><rect id="Rectangle-path" fill="#1262af" x="177.678571" y="99.3548387" width="7.10714286" height="7.09677419"></rect><path d="M103.053571,63.8709677 L95.9464286,63.8709677 L95.9464286,56.7741935 L88.8392857,56.7741935 L88.8392857,220 L110.160714,220 L110.160714,56.7741935 L103.053571,56.7741935 L103.053571,63.8709677 Z M103.053571,212.903226 L95.9464286,212.903226 L95.9464286,70.9677419 L103.053571,70.9677419 L103.053571,212.903226 Z" id="Shape" fill="#CCCCCC"></path><path d="M197.806,36.3816129 C196.491179,35.2141935 165.710143,8.50193548 117.267857,7.21741935 L117.267857,0 L81.7321429,0 L81.7321429,7.21741935 C33.2898571,8.50193548 2.50882143,35.2141935 1.194,36.3816129 L0,37.4390323 L0,46.1290323 L7.10714286,46.1290323 L7.90669643,46.0403226 C8.34733929,45.933871 50.7307857,36.253871 81.7321429,35.53 L81.7321429,49.6774194 L117.267857,49.6774194 L117.267857,35.53 C148.269214,36.253871 190.652661,45.933871 191.093304,46.0367742 L199,46.1290323 L199,37.4390323 L197.806,36.3816129 Z M81.7321429,28.443871 C55.3504286,29.0222581 21.9184286,35.7358065 10.3799821,38.2196774 C20.3015536,31.0732258 46.168,15.3006452 81.7321429,14.2893548 L81.7321429,28.443871 Z M110.160714,42.5806452 L88.8392857,42.5806452 L88.8392857,7.09677419 L110.160714,7.09677419 L110.160714,42.5806452 Z M117.267857,28.443871 L117.267857,14.2893548 C152.728946,15.3041935 178.641589,31.0590323 188.598696,38.216129 C177.035375,35.7287097 143.631804,29.0222581 117.267857,28.443871 Z" id="Shape" fill="#CCCCCC"></path></g></g></g></g></g></svg>