<?xml version="1.0" encoding="UTF-8" standalone="yes"?><svg xmlns="http://www.w3.org/2000/svg" xmlns:xlink="http://www.w3.org/1999/xlink" width="82px" height="82px" viewBox="0 0 82 82" version="1.1" style="zoom: 1;"><!-- Generator: Sketch 48.2 (47327) - http://www.bohemiancoding.com/sketch --><title>teamwork</title><desc>Created with Sketch.</desc><defs></defs><g id="Landing-page" stroke="none" stroke-width="1" fill="none" fill-rule="evenodd" transform="translate(-297.000000, -7284.000000)"><g id="Benefits" transform="translate(30.000000, 6984.000000)" fill-rule="nonzero"><g id="1" transform="translate(220.000000, 253.000000)"><g id="Group-10"><g id="Group-24"><g id="teamwork" transform="translate(47.000000, 47.000000)"><path d="M45.513594,1.73480756 C44.4776531,0.632174207 43.0148097,0 41.5,0 C39.9851903,0 38.5221776,0.632343011 37.486406,1.73480756 C36.450465,2.83727211 35.9128591,4.33423363 36.0115443,5.84199865 L36.2881338,10.0698852 C36.2881338,10.070054 36.2881338,10.070054 36.2881338,10.070054 C36.3976524,11.7417286 37.2826032,13.270763 38.6555635,14.1603646 C39.5195247,14.7202903 40.5099316,15 41.5001693,15 C42.4904069,15 43.4809831,14.7201215 44.3446058,14.1605334 C45.7173968,13.2709318 46.6025169,11.7418974 46.7118662,10.070054 L46.9884557,5.84199865 C47.0871409,4.33440243 46.549535,2.83744092 45.513594,1.73480756 Z M43.543275,5.6179946 L43.2666855,9.84571236 C43.2279224,10.4390614 42.9278042,10.9724848 42.4638313,11.2731263 C41.8781523,11.6524308 41.122017,11.6520932 40.5366765,11.2731263 C40.0727036,10.9724848 39.7727547,10.4387238 39.733653,9.84571236 L39.4570635,5.6179946 C39.4199931,5.0486158 39.6148245,4.50557056 40.0061799,4.08912897 C40.3973661,3.67285618 40.9278627,3.44345037 41.5,3.44345037 C42.0721373,3.44345037 42.6024646,3.67285618 42.9938201,4.08912897 C43.3855141,4.50557056 43.5803454,5.0486158 43.543275,5.6179946 Z" id="Shape" fill="#FFFFFF"></path><path d="M52.9748014,24.0947391 L52.5367025,21.6145863 C51.9605088,18.3542231 49.4410919,15.7521476 46.2673874,15.1393629 C45.7881539,15.04693 45.2984047,15 44.8111298,15 L43.4914205,15 C43.0731157,15 42.671976,15.1704382 42.3761471,15.4735803 C41.8751091,15.987273 41.2089142,16.2702796 40.5000382,16.2702796 C39.7911622,16.2702796 39.1249673,15.987273 38.6239293,15.4735803 C38.3281004,15.1704382 37.9269607,15 37.5086559,15 L36.1889466,15 C35.7018263,15 35.2119225,15.04693 34.732689,15.1393629 C31.5589845,15.7518305 29.0395676,18.3540646 28.4633739,21.6145863 L28.025275,24.0947391 C27.9419233,24.5662583 28.0670281,25.0515711 28.3665684,25.4194004 C28.666418,25.7872297 29.1097748,26 29.5772556,26 L51.4229755,26 C51.8904563,26 52.333813,25.7873883 52.6333533,25.4194004 C52.9328936,25.0515711 53.0579985,24.5664168 52.9748014,24.0947391 Z M31.4660451,22.7657971 L31.5674898,22.1909052 C31.9121854,20.2404583 33.4190107,18.6838426 35.3167694,18.3174402 C35.6037837,18.2619487 35.897293,18.2338858 36.1892559,18.2338858 L36.9132867,18.2338858 C37.9322186,19.0573796 39.1826485,19.504324 40.5001928,19.504324 C41.8175825,19.504324 43.0681671,19.0575382 44.087099,18.2338858 L44.8111298,18.2338858 C45.102938,18.2338858 45.396602,18.2619487 45.6836163,18.3174402 C47.5815296,18.6838426 49.0880457,20.2404583 49.4328959,22.1909052 L49.5344953,22.7657971 L31.4660451,22.7657971 Z" id="Shape" fill="#FFFFFF"></path><path d="M45.513594,58.7348076 C44.4776531,57.6321742 43.0148097,57 41.5,57 C39.9851903,57 38.5221776,57.632343 37.486406,58.7348076 C36.450465,59.8374409 35.9128591,61.3344024 36.0115443,62.8419986 L36.2881338,67.070054 C36.3976524,68.7418974 37.2827725,70.2709318 38.6553942,71.1603646 C39.519694,71.7202903 40.5097623,72 41.5001693,72 C42.4902377,72 43.4809831,71.7201215 44.3446058,71.1603646 C45.7172275,70.2709318 46.6025169,68.7417286 46.7118662,67.0698852 L46.9884557,62.8418298 C47.0871409,61.3344024 46.549535,59.8374409 45.513594,58.7348076 Z M43.543275,62.617657 L43.2666855,66.8455436 C43.2279224,67.4387238 42.9278042,67.9721472 42.463662,68.2727887 C41.8781523,68.6520932 41.122017,68.6520932 40.5366765,68.2727887 C40.0727036,67.9721472 39.7727547,67.438555 39.733653,66.8455436 L39.4570635,62.6178258 C39.4199931,62.0482782 39.6148245,61.505233 40.0061799,61.0889602 C40.3971969,60.6726874 40.9278627,60.4432816 41.5,60.4432816 C42.0721373,60.4432816 42.6026339,60.6726874 42.9938201,61.0889602 C43.3855141,61.505233 43.5803454,62.0482782 43.543275,62.617657 Z" id="Shape" fill="#FFFFFF"></path><path d="M52.9748013,80.0947391 L52.5366996,77.6145863 C51.9605024,74.3542231 49.4410699,71.7521476 46.2673458,71.1393629 C45.7885732,71.04693 45.2986664,71 44.8110792,71 L43.4913617,71 C43.0730543,71 42.6719121,71.1704382 42.3760814,71.4735803 C41.3415243,72.5344191 39.6585521,72.5342606 38.623995,71.4735803 C38.3281643,71.1704382 37.9270222,71 37.5087147,71 L36.1889972,71 C35.7021833,71 35.2122764,71.04693 34.7327306,71.1393629 C31.5590065,71.7521476 29.039574,74.3542231 28.4633768,77.6147449 L28.0252751,80.0948977 C27.9419229,80.5664168 28.0670286,81.0517296 28.3665707,81.419559 C28.6664221,81.7873883 29.1097816,82 29.5772653,82 L51.4231203,82 C51.890604,82 52.3339635,81.7873883 52.6333511,81.4192419 C52.9328932,81.0515711 53.0579988,80.5664168 52.9748013,80.0947391 Z M31.4660665,78.7659556 L31.5673572,78.1912223 C31.9122096,76.2407754 33.4188896,74.6841597 35.3161961,74.3177573 C35.6035215,74.2622658 35.8971872,74.2342029 36.1889972,74.2342029 L36.9139604,74.2342029 C39.0109101,75.9243154 41.9897849,75.9243154 44.0864253,74.2342029 L44.8113884,74.2342029 C45.1033531,74.2342029 45.3970189,74.2622658 45.6838803,74.3175987 C47.5818054,74.6840012 49.0883308,76.2406169 49.4331831,78.1910637 L49.5347831,78.7659556 L31.4660665,78.7659556 Z" id="Shape" fill="#FFFFFF"></path><path d="M17.5139392,29.7349959 C16.4779794,28.6323501 15.0151094,28 13.5001029,28 C11.9850964,28 10.5218879,28.6323501 9.48609744,29.7349959 C8.45030697,30.8374729 7.91286053,32.3344512 8.01154754,33.8418956 L8.28814202,38.0698297 C8.39749333,39.7415231 9.28246026,41.2707435 10.6554455,42.1603552 C11.5195916,42.7201184 12.5100166,43 13.5002722,43 C14.4905279,43 15.481122,42.7201184 16.3447604,42.160524 C17.7177456,41.2709123 18.6027125,39.7416919 18.7118946,38.0701673 L18.9884891,33.8420644 C19.0870068,32.33462 18.5495604,30.837304 17.5139392,29.7349959 Z M15.5432458,33.6177202 L15.2666513,37.8458232 C15.2280567,38.4390101 14.9279331,38.9722707 14.4637825,39.2729155 C13.8782621,39.6522243 13.122113,39.6522243 12.5367619,39.2729155 C12.0726113,38.9721019 11.772657,38.4386725 11.7337238,37.8458232 L11.4571294,33.6177202 C11.419889,33.048335 11.6148932,32.5052837 12.0060865,32.0890062 C12.3972798,31.6725599 12.9279552,31.4431515 13.5001029,31.4431515 C14.0722506,31.4431515 14.6027568,31.6727287 14.9939501,32.0890062 C15.3851434,32.5052837 15.5804862,33.048335 15.5432458,33.6177202 Z" id="Shape" fill="#FFFFFF"></path><path d="M24.9747262,52.0948702 L24.5366259,49.6146817 C23.9604304,46.3542715 21.4410055,43.7521584 18.2672909,43.1393649 C17.7883651,43.0469306 17.2984597,43 16.810874,43 L15.4911605,43 C15.073009,43 14.6720227,43.1704406 14.3760382,43.4735871 C13.3414842,44.5342827 11.6585171,44.5344413 10.6239631,43.4735871 C10.3281333,43.1704406 9.92699233,43 9.50868614,43 L8.188818,43 C7.70200548,43 7.21194547,43.0469306 6.7327104,43.1393649 C3.55899583,43.7521584 1.03957091,46.3542715 0.463375401,49.6146817 L0.0252750567,52.0948702 C-0.0580768972,52.5663962 0.0670283546,53.0517159 0.366569606,53.4195506 C0.666420142,53.7873852 1.10977831,54 1.5772606,54 L23.42305,54 C23.8905323,54 24.3338904,53.7873852 24.6332771,53.4195506 C24.9329729,53.0517159 25.0580782,52.5667133 24.9747262,52.0948702 Z M3.46621073,50.7660675 L3.56765578,50.1911674 C3.91250709,48.240851 5.41918258,46.6840543 7.31694729,46.3176466 C7.60396255,46.2621543 7.89747277,46.234091 8.18928193,46.234091 L8.91362432,46.234091 C9.93255943,47.0575967 11.183148,47.5043889 12.5005419,47.5043889 C13.8179358,47.5043889 15.0685244,47.0575967 16.0874595,46.234091 L16.8114926,46.234091 C17.1033017,46.234091 17.396812,46.2621543 17.6838272,46.3176466 C19.5817466,46.6840543 21.0882674,48.240851 21.4331187,50.1911674 L21.5347184,50.7660675 L3.46621073,50.7660675 Z" id="Shape" fill="#FFFFFF"></path><path d="M73.5135716,29.7348076 C72.477615,28.6321742 71.0147495,28 69.4999169,28 C67.984915,28 66.5218802,28.632343 65.4860929,29.7349764 C64.4503056,30.8374409 63.9128608,32.3345712 64.0115475,33.8419986 L64.2881411,38.0698852 C64.3974921,39.7415598 65.2822871,41.270763 66.6552681,42.1603646 C67.5195809,42.7202903 68.5096643,43 69.5000862,43 C70.4901695,43 71.4809299,42.7201215 72.3445657,42.1603646 C73.7175467,41.270763 74.6026802,39.7415598 74.7118619,38.0698852 L74.9884555,33.8418298 C75.0871422,32.3342336 74.5495282,30.8372721 73.5135716,29.7348076 Z M71.5432228,33.617657 L71.2666291,37.8457124 C71.2280347,38.4387238 70.9277427,38.9721472 70.4635935,39.2727887 C69.8785827,39.6519244 69.1222667,39.6520932 68.5365788,39.2727887 C68.0725989,38.9721472 67.7726455,38.4387238 67.7337125,37.8457124 L67.4571188,33.617657 C67.4198785,33.0482782 67.6150514,32.505233 68.0060742,32.0889602 C68.3970971,31.6726874 68.9277709,31.4432816 69.4999169,31.4432816 C70.0722321,31.4432816 70.6027367,31.6726874 70.9937595,32.0889602 C71.3854594,32.505233 71.5802938,33.0482782 71.5432228,33.617657 Z" id="Shape" fill="#FFFFFF"></path><path d="M81.974786,52.0948702 L81.5366846,49.6146817 C80.9604878,46.3542715 78.4410568,43.7521584 75.2673346,43.1393649 C74.7880984,43.0469306 74.2983465,43 73.8110689,43 L72.4911976,43 C72.0730451,43 71.6720578,43.1704406 71.3760726,43.4735871 C70.3415162,44.5342827 68.658545,44.5344413 67.6239886,43.4735871 C67.328158,43.1704406 66.9270161,43 66.5087089,43 L65.1889922,43 C64.7017146,43 64.2118081,43.0469306 63.7328812,43.1393649 C60.5590044,43.7521584 58.0395734,46.3542715 57.4633765,49.6146817 L57.0252751,52.0948702 C56.941923,52.5663962 57.0670285,53.0517159 57.3665705,53.4195506 C57.6664217,53.7873852 58.109781,54 58.5772644,54 L80.4231061,54 C80.8905895,54 81.3339487,53.7873852 81.633336,53.4195506 C81.9330326,53.0517159 82.0579835,52.5667133 81.974786,52.0948702 Z M60.4660644,50.7660675 L60.5676643,50.1911674 C60.9123618,48.240851 62.4190409,46.6840543 64.3171194,46.3176466 C64.6039808,46.2621543 64.897337,46.234091 65.1893015,46.234091 L65.9133364,46.234091 C66.9322739,47.0575967 68.1828655,47.5043889 69.5002625,47.5043889 C70.8176596,47.5043889 72.0682511,47.0575967 73.0871887,46.234091 L73.8113782,46.234091 C74.1030334,46.234091 74.396699,46.2621543 74.6837149,46.3176466 C76.5816388,46.6840543 78.0881633,48.240851 78.4330154,50.1911674 L78.5346153,50.7660675 L60.4660644,50.7660675 Z" id="Shape" fill="#FFFFFF"></path><path d="M31.9165375,10.131779 C31.6381279,9.26088315 30.7453664,8.79368465 29.9220144,9.08817315 C23.6910386,11.3192011 18.1408938,15.6795571 14.2940602,21.3656012 C13.7884499,22.1132494 13.9510226,23.1534272 14.6574579,23.6886976 C14.934942,23.8989532 15.2549974,24 15.5719678,24 C16.0621537,24 16.5453987,23.7580754 16.8523433,23.3040995 C20.3188124,18.1802608 25.3184621,14.2518429 30.9304586,12.2423344 C31.7536563,11.9476826 32.1951013,11.0026749 31.9165375,10.131779 " id="Shape" fill="#1262af"></path><path d="M66.7051161,20.497812 C63.9908955,16.6956894 60.4092435,13.4810492 56.3468018,11.2015122 C55.5872776,10.7752812 54.6261618,11.047238 54.2010261,11.8094611 C53.7757359,12.5716841 54.0473589,13.5351614 54.8071923,13.9617025 C58.4673784,16.0157976 61.6950083,18.9127415 64.1411616,22.3390242 C64.4489598,22.7703718 64.9331507,23 65.4246075,23 C65.7421452,23 66.0629294,22.9040244 66.3408908,22.7041657 C67.0492441,22.1957585 67.2120324,21.2077834 66.7051161,20.497812 " id="Shape" fill="#1262af"></path><path d="M51.9497258,9.32495016 C51.6766896,9.23849675 51.3979848,9.15366688 51.1211696,9.07330174 C50.2808039,8.82868864 49.3695811,9.2163084 49.0850503,9.93810644 C48.8009919,10.6599045 49.2516433,11.4431264 50.0916941,11.6874689 C50.3407963,11.7598516 50.591788,11.8361579 50.8375836,11.9142231 C51.0211823,11.9723998 51.208875,12 51.3935759,12 C52.0468788,12 52.660974,11.6548628 52.9001562,11.097448 C53.2073613,10.3824147 52.7819035,9.58891042 51.9497258,9.32495016 " id="Shape" fill="#1262af"></path><path d="M30.930536,67.757393 C25.31855,65.74823 20.318911,61.819679 16.852448,56.695724 C16.346531,55.948246 15.363847,55.776028 14.657567,56.311295 C13.950979,56.846722 13.788406,57.886726 14.29417,58.634369 C18.140997,64.320526 23.691284,68.680679 29.922094,70.91169 C30.089293,70.971436 30.25927,71 30.426468,71 C31.082466,71 31.694656,70.562187 31.916613,69.868088 C32.195023,68.9972 31.753578,68.0522 30.930536,67.757393 " id="Shape" fill="#1262af"></path><path d="M66.3424976,56.3112553 C65.636061,55.7759764 64.6532195,55.9483626 64.1476083,56.6956962 C60.6811332,61.8197794 55.6814747,65.7482595 50.0694684,67.7574735 C49.2464235,68.0521299 48.8049777,68.9971526 49.0833878,69.8682255 C49.3051904,70.5623414 49.9175382,71 50.5735371,71 C50.7405831,71 50.9107141,70.9715954 51.0777601,70.9118479 C57.3989794,68.6484622 62.8030651,64.4029612 66.705896,58.6342252 C67.2115071,57.8865652 67.0490884,56.8465342 66.3424976,56.3112553 " id="Shape" fill="#1262af"></path></g></g></g></g></g></g></svg>