<?xml version="1.0" encoding="UTF-8" standalone="yes"?><svg xmlns="http://www.w3.org/2000/svg" xmlns:xlink="http://www.w3.org/1999/xlink" width="73px" height="58px" viewBox="0 0 73 58" version="1.1" style="zoom: 1;"><!-- Generator: Sketch 48.2 (47327) - http://www.bohemiancoding.com/sketch --><title>television</title><desc>Created with Sketch.</desc><defs></defs><g id="Landing-page" stroke="none" stroke-width="1" fill="none" fill-rule="evenodd" transform="translate(-302.000000, -7746.000000)"><g id="Benefits" transform="translate(30.000000, 6984.000000)" fill-rule="nonzero"><g id="3" transform="translate(220.000000, 703.000000)"><g id="Group-12"><g id="television" transform="translate(52.000000, 59.000000)"><path d="M71.7833333,0 L1.21666667,0 C0.54385,0 0,0.540125 0,1.20833333 L0,47.125 C0,47.7932083 0.54385,48.3333333 1.21666667,48.3333333 L32.85,48.3333333 L32.85,51.9583333 L26.7666667,51.9583333 L26.7666667,58 L46.2333333,58 L46.2333333,51.9583333 L40.15,51.9583333 L40.15,48.3333333 L71.7833333,48.3333333 C72.45615,48.3333333 73,47.7932083 73,47.125 L73,1.20833333 C73,0.540125 72.45615,0 71.7833333,0 Z M43.8,54.375 L43.8,55.5833333 L29.2,55.5833333 L29.2,54.375 L35.2833333,54.375 L35.2833333,48.3333333 L37.7166667,48.3333333 L37.7166667,54.375 L43.8,54.375 Z M70.5666667,45.9166667 L40.15,45.9166667 L32.85,45.9166667 L2.43333333,45.9166667 L2.43333333,2.41666667 L70.5666667,2.41666667 L70.5666667,45.9166667 Z" id="Shape" fill="#FFFFFF"></path><path d="M67,34.46875 L51.60244,34.46875 L51.498779,34.377342 C51.068295,33.997093 50.608536,33.681438 50.126831,33.432812 L44.491463,29.789968 L44.37439,29.722937 C43.947559,29.509657 43.474392,29.410938 43.057316,29.323187 C42.924389,29.296375 42.751221,29.258595 42.609756,29.222031 L42.609756,27.63522 C42.664635,27.598656 42.721951,27.558437 42.780487,27.518219 C43.606098,26.950281 43.992683,26.666313 44.225609,26.338469 C45.070732,25.142876 45.917072,23.855875 46.457317,22.473812 C47.629269,21.937563 48.708538,20.901625 48.708538,19.586594 L48.708538,16.8505 C48.708538,16.347157 48.510975,15.856 48.123169,15.392875 C47.834145,15.04675 47.489025,14.486125 47.489025,13.784125 L47.489025,12.499562 C47.410976,9.559937 45.27195,4 37.731709,4 C30.191463,4 28.052439,9.559937 27.975611,12.53125 L27.975611,13.782907 C27.975611,14.484906 27.631708,15.045531 27.342684,15.390437 C26.953659,15.856 26.756098,16.347157 26.756098,16.8505 L26.756098,19.586594 C26.756098,20.761469 27.723171,21.593876 28.406097,22.072844 C29.218292,24.529844 31.676828,26.35675 32.853657,27.116032 L32.853657,28.733313 C32.535366,29.042875 31.562195,29.504782 31.126829,29.711969 C30.858536,29.839937 30.621952,29.953281 30.419512,30.064188 L24.706097,33.379189 C24.223171,33.642437 23.758537,33.983688 23.325609,34.390751 L23.242683,34.46875 L17,34.46875 L17,43 L67,43 L67,34.46875 M31.615854,32.188469 C31.758537,32.11047 31.953659,32.017845 32.174389,31.913031 C33.563416,31.252468 35.292683,30.43103 35.292683,28.929531 L35.292683,25.705938 L34.657318,25.359812 C33.697559,24.836969 31.106098,23.04175 30.646341,21.036905 L30.535366,20.554281 L30.119513,20.284937 C29.365854,19.798656 29.22439,19.548813 29.195122,19.586594 L29.195122,16.977249 C29.200001,16.972376 29.206097,16.965063 29.214634,16.952875 C29.987804,16.027843 30.414635,14.9005 30.414635,13.782907 L30.414635,12.562938 C30.420732,12.313094 30.657316,6.4375 37.731709,6.4375 C44.629269,6.4375 45.026829,11.941375 45.048782,12.53125 L45.048782,13.782907 C45.048782,14.885875 45.463413,15.996156 46.268291,16.984562 L46.269512,19.56953 C46.229267,19.742594 45.735367,20.191093 45.136585,20.373907 L44.530487,20.560375 L44.335365,21.164875 C43.921951,22.448219 43.081707,23.731562 42.29512,24.852812 C42.169514,24.977125 41.665855,25.32325 41.396343,25.509718 C40.879269,25.865593 40.643902,26.031343 40.474392,26.222687 L40.170731,26.570032 L40.170731,29.59375 C40.170731,31.208593 41.781708,31.546188 42.556099,31.708281 C42.803658,31.759468 43.081707,31.817968 43.239025,31.882563 L47.239025,34.46875 L27.684147,34.46875 L31.615854,32.188469 M64.560974,40.5625 L19.439024,40.5625 L19.439024,36.90625 L24.40122,36.90625 L50.473171,36.90625 L64.560974,36.90625 L64.560974,40.5625 " id="Shape" fill="#1262af"></path><path d="M67,5 L60,5 L60,12 L67,12 L67,5 M64.6666667,9.66666667 L62.3333333,9.66666667 L62.3333333,7.33333333 L64.6666667,7.33333333 L64.6666667,9.66666667 " id="Shape" fill="#1262af"></path><path d="M15,34 L6,34 L6,42 L15,42 L15,34 M12.4285714,39.7142857 L8.57142857,39.7142857 L8.57142857,36.2857143 L12.4285714,36.2857143 L12.4285714,39.7142857 " id="Shape" fill="#1262af"></path></g></g></g></g></g></svg>